<svg xmlns="http://www.w3.org/2000/svg" viewBox="0 0 140 140"><path fill="#D82A4A" d="M23.595 139.994a2.509 2.509 0 0 1-2.675-2.325 2.506 2.506 0 0 1 2.325-2.675c21.08-3 70.51-33.398 66.64-67.995-1.54-13.7-8.18-20.35-8.24-20.41a21.8 21.8 0 0 0-3.15-2.509c-29.9 30.918-57.49 66.516-57.91 67.046l-3.64 4.709-.79-5.899a312.61 312.61 0 0 1-2.15-38.348c.15-28.678 4.27-51.156 12.25-66.826a2.49 2.49 0 0 1 4.43 2.24c-7.51 14.78-11.56 37.118-11.68 64.606-.07 13.38.8 24.999 1.44 31.658 8.5-10.76 30.03-37.347 53.35-61.566a61.474 61.474 0 0 0-7.16-2.13c-5.63-1.41-11.37-2.87-14.41-8.57-3.46-6.489-1.54-15.248 2.15-20.548 8.1-11.63 26.54-10.86 46.07-10.04 6.462.265 12.901.932 19.28 2l6.28 1.1-5.34 3.49c-11.66 7.59-25.3 19.91-38.66 33.458a28.106 28.106 0 0 1 3.09 2.54c.32.31 8 7.83 9.73 23.459 4.27 38.167-47.77 70.205-70.88 73.535h-.35ZM85.925 5.002c-12.31 0-22.7 1.45-27.47 8.3-2.75 4-4.33 10.69-1.84 15.359 2 3.74 6.07 4.78 11.24 6.08a54.651 54.651 0 0 1 9.66 3.13c11.91-12.13 24.12-23.4 35.18-31.429-4.13-.52-8.3-.87-12.46-1.05-4.91-.2-9.74-.39-14.31-.39Zm6.31 5.49 4.61.78-3.48 3.57"/><path fill="#D82A4A" d="M91.755 15.502a2.5 2.5 0 1 0 0-5 2.5 2.5 0 0 0 0 5Z"/></svg>
